<svg width="91" height="45" viewBox="0 0 91 45" fill="none" xmlns="http://www.w3.org/2000/svg">
<path d="M24.724 35H17.632L10.792 20.816L8.272 35H1.18L5.68 9.62H12.736L19.612 23.984L22.132 9.62H29.188L24.724 35ZM53.8353 9.62L49.3353 35H42.3153L44.7993 20.96L37.4913 35H31.5873L29.2833 20.888L26.7993 35H19.7073L24.2073 9.62H32.7393L36.2313 26.072L45.3393 9.62H53.8353ZM60.4439 21.968L67.9319 35H59.3999L53.3879 23.84L51.4439 35H44.3519L48.8519 9.62H55.9079L53.9639 20.6L63.7919 9.62H71.9279L60.4439 21.968ZM77.565 21.968L85.053 35H76.521L70.509 23.84L68.565 35H61.473L65.973 9.62H73.029L71.085 20.6L80.913 9.62H89.049L77.565 21.968Z" fill="black"/>
<path d="M24.724 35V35.5H25.1437L25.2164 35.0866L24.724 35ZM17.632 35L17.1816 35.2172L17.318 35.5H17.632V35ZM10.792 20.816L11.2424 20.5988L10.5703 19.2052L10.2997 20.7285L10.792 20.816ZM8.272 35V35.5H8.691L8.76429 35.0875L8.272 35ZM1.18 35L0.687679 34.9127L0.583549 35.5H1.18V35ZM5.68 9.62V9.12H5.26085L5.18768 9.53271L5.68 9.62ZM12.736 9.62L13.187 9.40411L13.051 9.12H12.736V9.62ZM19.612 23.984L19.161 24.1999L19.8348 25.6075L20.1045 24.0704L19.612 23.984ZM22.132 9.62V9.12H21.7121L21.6395 9.5336L22.132 9.62ZM29.188 9.62L29.6804 9.70661L29.7836 9.12H29.188V9.62ZM24.724 34.5H17.632V35.5H24.724V34.5ZM18.0824 34.7828L11.2424 20.5988L10.3416 21.0332L17.1816 35.2172L18.0824 34.7828ZM10.2997 20.7285L7.77971 34.9125L8.76429 35.0875L11.2843 20.9035L10.2997 20.7285ZM8.272 34.5H1.18V35.5H8.272V34.5ZM1.67232 35.0873L6.17232 9.70729L5.18768 9.53271L0.687679 34.9127L1.67232 35.0873ZM5.68 10.12H12.736V9.12H5.68V10.12ZM12.285 9.83589L19.161 24.1999L20.063 23.7681L13.187 9.40411L12.285 9.83589ZM20.1045 24.0704L22.6245 9.7064L21.6395 9.5336L19.1195 23.8976L20.1045 24.0704ZM22.132 10.12H29.188V9.12H22.132V10.12ZM28.6956 9.53338L24.2316 34.9134L25.2164 35.0866L29.6804 9.70661L28.6956 9.53338ZM53.8353 9.62L54.3277 9.70729L54.4318 9.12H53.8353V9.62ZM49.3353 35V35.5H49.7545L49.8277 35.0873L49.3353 35ZM42.3153 35L41.823 34.9129L41.7191 35.5H42.3153V35ZM44.7993 20.96L45.2917 21.0471L44.3558 20.7291L44.7993 20.96ZM37.4913 35V35.5H37.7948L37.9349 35.2309L37.4913 35ZM31.5873 35L31.0939 35.0806L31.1624 35.5H31.5873V35ZM29.2833 20.888L29.7768 20.8074L28.7909 20.8013L29.2833 20.888ZM26.7993 35V35.5H27.219L27.2918 35.0867L26.7993 35ZM19.7073 35L19.215 34.9127L19.1109 35.5H19.7073V35ZM24.2073 9.62V9.12H23.7882L23.715 9.53271L24.2073 9.62ZM32.7393 9.62L33.2284 9.51618L33.1444 9.12H32.7393V9.62ZM36.2313 26.072L35.7422 26.1758L36.0203 27.4856L36.6688 26.3142L36.2313 26.072ZM45.3393 9.62V9.12H45.0446L44.9019 9.37783L45.3393 9.62ZM53.343 9.53271L48.843 34.9127L49.8277 35.0873L54.3277 9.70729L53.343 9.53271ZM49.3353 34.5H42.3153V35.5H49.3353V34.5ZM42.8077 35.0871L45.2917 21.0471L44.307 20.8729L41.823 34.9129L42.8077 35.0871ZM44.3558 20.7291L37.0478 34.7691L37.9349 35.2309L45.2429 21.1909L44.3558 20.7291ZM37.4913 34.5H31.5873V35.5H37.4913V34.5ZM32.0808 34.9194L29.7768 20.8074L28.7899 20.9686L31.0939 35.0806L32.0808 34.9194ZM28.7909 20.8013L26.3069 34.9133L27.2918 35.0867L29.7758 20.9747L28.7909 20.8013ZM26.7993 34.5H19.7073V35.5H26.7993V34.5ZM20.1997 35.0873L24.6997 9.70729L23.715 9.53271L19.215 34.9127L20.1997 35.0873ZM24.2073 10.12H32.7393V9.12H24.2073V10.12ZM32.2502 9.72381L35.7422 26.1758L36.7204 25.9682L33.2284 9.51618L32.2502 9.72381ZM36.6688 26.3142L45.7768 9.86217L44.9019 9.37783L35.7939 25.8298L36.6688 26.3142ZM45.3393 10.12H53.8353V9.12H45.3393V10.12ZM60.4439 21.968L60.0777 21.6275L59.8267 21.8974L60.0103 22.2171L60.4439 21.968ZM67.9319 35V35.5H68.7958L68.3654 34.7509L67.9319 35ZM59.3999 35L58.9597 35.2371L59.1013 35.5H59.3999V35ZM53.3879 23.84L53.8281 23.6029L53.1431 22.3314L52.8953 23.7542L53.3879 23.84ZM51.4439 35V35.5H51.8643L51.9365 35.0858L51.4439 35ZM44.3519 35L43.8596 34.9127L43.7554 35.5H44.3519V35ZM48.8519 9.62V9.12H48.4327L48.3596 9.53271L48.8519 9.62ZM55.9079 9.62L56.4002 9.70717L56.5042 9.12H55.9079V9.62ZM53.9639 20.6L53.4715 20.5128L53.1654 22.2417L54.3364 20.9335L53.9639 20.6ZM63.7919 9.62V9.12H63.5684L63.4193 9.28653L63.7919 9.62ZM71.9279 9.62L72.294 9.96051L73.0757 9.12H71.9279V9.62ZM60.0103 22.2171L67.4983 35.2491L68.3654 34.7509L60.8774 21.7189L60.0103 22.2171ZM67.9319 34.5H59.3999V35.5H67.9319V34.5ZM59.8401 34.7629L53.8281 23.6029L52.9477 24.0771L58.9597 35.2371L59.8401 34.7629ZM52.8953 23.7542L50.9513 34.9142L51.9365 35.0858L53.8805 23.9258L52.8953 23.7542ZM51.4439 34.5H44.3519V35.5H51.4439V34.5ZM44.8442 35.0873L49.3442 9.70729L48.3596 9.53271L43.8596 34.9127L44.8442 35.0873ZM48.8519 10.12H55.9079V9.12H48.8519V10.12ZM55.4155 9.53283L53.4715 20.5128L54.4562 20.6872L56.4002 9.70717L55.4155 9.53283ZM54.3364 20.9335L64.1644 9.95347L63.4193 9.28653L53.5913 20.2665L54.3364 20.9335ZM63.7919 10.12H71.9279V9.12H63.7919V10.12ZM71.5617 9.27949L60.0777 21.6275L60.81 22.3085L72.294 9.96051L71.5617 9.27949ZM77.565 21.968L77.1988 21.6275L76.9478 21.8974L77.1314 22.2171L77.565 21.968ZM85.053 35V35.5H85.9169L85.4865 34.7509L85.053 35ZM76.521 35L76.0808 35.2371L76.2224 35.5H76.521V35ZM70.509 23.84L70.9492 23.6029L70.2642 22.3314L70.0164 23.7542L70.509 23.84ZM68.565 35V35.5H68.9854L69.0575 35.0858L68.565 35ZM61.473 35L60.9806 34.9127L60.8765 35.5H61.473V35ZM65.973 9.62V9.12H65.5538L65.4806 9.53271L65.973 9.62ZM73.029 9.62L73.5213 9.70717L73.6253 9.12H73.029V9.62ZM71.085 20.6L70.5926 20.5128L70.2865 22.2417L71.4575 20.9335L71.085 20.6ZM80.913 9.62V9.12H80.6895L80.5404 9.28653L80.913 9.62ZM89.049 9.62L89.4151 9.96051L90.1968 9.12H89.049V9.62ZM77.1314 22.2171L84.6194 35.2491L85.4865 34.7509L77.9985 21.7189L77.1314 22.2171ZM85.053 34.5H76.521V35.5H85.053V34.5ZM76.9612 34.7629L70.9492 23.6029L70.0688 24.0771L76.0808 35.2371L76.9612 34.7629ZM70.0164 23.7542L68.0724 34.9142L69.0575 35.0858L71.0015 23.9258L70.0164 23.7542ZM68.565 34.5H61.473V35.5H68.565V34.5ZM61.9653 35.0873L66.4653 9.70729L65.4806 9.53271L60.9806 34.9127L61.9653 35.0873ZM65.973 10.12H73.029V9.12H65.973V10.12ZM72.5366 9.53283L70.5926 20.5128L71.5773 20.6872L73.5213 9.70717L72.5366 9.53283ZM71.4575 20.9335L81.2855 9.95347L80.5404 9.28653L70.7124 20.2665L71.4575 20.9335ZM80.913 10.12H89.049V9.12H80.913V10.12ZM88.6828 9.27949L77.1988 21.6275L77.9311 22.3085L89.4151 9.96051L88.6828 9.27949Z" fill="black"/>
</svg>
